<svg width="628" height="579" viewBox="0 0 628 579" fill="none" xmlns="http://www.w3.org/2000/svg">
<g clip-path="url(#clip0_15_1480)">
<path d="M107.134 339.078L120.702 411.606L29.9813 428.576L16.4141 356.048L107.134 339.078Z" fill="#F3F2F1"/>
<path d="M107.134 339.078C107.134 339.078 106.98 339.119 106.693 339.179C106.384 339.24 105.964 339.326 105.419 339.435C104.276 339.659 102.628 339.979 100.49 340.396C96.1677 341.224 89.8828 342.43 81.9235 343.955C65.9927 346.975 43.3651 351.264 16.4729 356.362L16.7281 355.99C20.7771 377.576 25.4188 402.319 30.3307 428.503L30.3317 428.511L29.9161 428.226C63.5047 421.966 94.7177 416.147 120.647 411.314L120.41 411.66C116.391 389.827 113.058 371.724 110.725 359.052C109.574 352.72 108.67 347.746 108.048 344.328C107.748 342.642 107.517 341.343 107.355 340.436C107.201 339.552 107.134 339.078 107.134 339.078C107.134 339.078 107.235 339.502 107.407 340.362C107.582 341.252 107.832 342.528 108.157 344.186C108.81 347.582 109.761 352.524 110.972 358.816C113.386 371.519 116.834 389.666 120.993 411.551L121.048 411.842L120.756 411.898C94.8333 416.764 63.6276 422.623 30.0473 428.927L29.6964 428.992L29.6307 428.642L29.6292 428.634C24.7443 402.446 20.1281 377.698 16.1 356.107L16.0417 355.792L16.3552 355.734C43.3557 350.75 66.0735 346.556 82.0683 343.604C90.0104 342.155 96.2817 341.011 100.595 340.224C102.712 339.846 104.344 339.552 105.476 339.35C106.009 339.258 106.42 339.187 106.722 339.135C107 339.09 107.139 339.07 107.134 339.078Z" fill="#DADBD8"/>
<path d="M32.2546 423.425L116.601 407.647L104.742 344.249L20.3958 360.028L32.2546 423.425" fill="#E7E8E5"/>
<path d="M32.2546 423.425L54.3432 378.508L77.2046 399.748L87.1166 384.252L116.602 407.647L32.2546 423.425" fill="#DADBD8"/>
<path d="M79.4361 368.818C80.1225 372.486 77.7053 376.015 74.0376 376.702C70.3694 377.387 66.8397 374.97 66.1537 371.302C65.4678 367.634 67.8845 364.104 71.5528 363.419C75.2204 362.732 78.7501 365.15 79.4361 368.818" fill="#DADBD8"/>
<path d="M386.615 326.184L196.641 291.791L243.095 35.2041L433.068 69.5987L386.615 326.184Z" fill="#FAFAF9"/>
<path d="M386.615 326.184C386.615 326.184 386.679 325.76 386.819 324.949C386.963 324.132 387.173 322.929 387.452 321.348C388.017 318.172 388.853 313.481 389.941 307.38C392.131 295.175 395.331 277.333 399.384 254.743C407.516 209.6 419.068 145.483 432.751 69.5414L433.009 69.9161C375.907 59.5881 311.264 47.8961 243.052 35.5601L243.031 35.5561L243.445 35.2681C226.092 130.979 210.017 219.645 196.928 291.843L196.693 291.503C254.196 301.979 301.645 310.621 334.731 316.648C351.284 319.679 364.241 322.049 373.073 323.667C377.484 324.48 380.861 325.103 383.148 325.524C385.428 325.948 386.615 326.184 386.615 326.184C386.615 326.184 385.461 325.996 383.197 325.597C380.92 325.193 377.557 324.595 373.165 323.815C364.343 322.235 351.397 319.917 334.86 316.956C301.719 310.993 254.189 302.441 196.589 292.077L196.301 292.025L196.353 291.737C209.407 219.535 225.439 130.861 242.743 35.1414L242.807 34.7894L243.157 34.8534L243.179 34.8574C311.387 47.2188 376.025 58.9334 433.125 69.2801L433.443 69.3388L433.385 69.6561C419.559 145.66 407.884 209.828 399.665 255.007C395.545 277.555 392.292 295.361 390.067 307.543C388.951 313.611 388.093 318.275 387.512 321.433C387.221 322.996 387 324.185 386.849 324.993C386.699 325.789 386.615 326.184 386.615 326.184" fill="#DADBD8"/>
<path d="M327.061 147.204L246.404 132.601L259.128 62.3241L339.784 76.9268L327.061 147.204Z" fill="#DADBD8"/>
<path d="M402.468 97.7441L350.824 88.3948L352.484 79.2255L404.128 88.5748L402.468 97.7441Z" fill="#DADBD8"/>
<path d="M390.556 182.944L243.168 156.26L244.828 147.092L392.216 173.776L390.556 182.944Z" fill="#DADBD8"/>
<path d="M387.635 199.084L240.247 172.4L241.907 163.232L389.295 189.915L387.635 199.084" fill="#DADBD8"/>
<path d="M384.712 215.224L237.324 188.54L238.984 179.371L386.372 206.055L384.712 215.224Z" fill="#DADBD8"/>
<path d="M381.791 231.363L234.403 204.679L236.063 195.511L383.451 222.195L381.791 231.363" fill="#DADBD8"/>
<path d="M378.868 247.503L231.48 220.819L233.14 211.651L380.528 238.334L378.868 247.503" fill="#DADBD8"/>
<path d="M368.852 302.83L221.464 276.146L223.124 266.976L370.512 293.66L368.852 302.83" fill="#DADBD8"/>
<path d="M309.465 251.605L228.559 236.959L230.219 227.789L311.125 242.437L309.465 251.605" fill="#DADBD8"/>
<path d="M399.781 112.583L348.137 103.232L349.797 94.0643L401.441 103.414L399.781 112.583" fill="#DADBD8"/>
<path d="M397.095 127.421L345.451 118.071L347.111 108.903L398.755 118.252L397.095 127.421" fill="#DADBD8"/>
<path d="M374.608 138.675L342.764 132.911L344.424 123.741L376.268 129.507L374.608 138.675Z" fill="#DADBD8"/>
<path d="M471.256 31.5282L463.704 15.8295L457.228 32.0922L471.256 31.5282ZM472.52 34.0135L456.133 34.6722L454.364 39.2655C453.787 40.7962 453.516 42.0522 453.556 43.0335C453.608 44.3335 454.171 45.2708 455.245 45.8442C455.876 46.1855 457.403 46.3962 459.828 46.4828L459.879 47.7482L444.449 48.3682L444.399 47.1015C446.053 46.7842 447.395 46.0402 448.421 44.8682C449.448 43.6948 450.676 41.3108 452.109 37.7122L467.215 0.0295276L467.865 0.00283491L486.123 37.3748C487.863 40.9135 489.265 43.1309 490.329 44.0242C491.133 44.7002 492.245 45.0669 493.664 45.1242L493.715 46.3895L471.272 47.2909L471.221 46.0255L472.145 45.9882C473.945 45.9162 475.201 45.6135 475.912 45.0828C476.397 44.6988 476.628 44.1628 476.601 43.4788C476.584 43.0682 476.499 42.6495 476.345 42.2215C476.291 42.0175 475.915 41.1762 475.215 39.6962L472.52 34.0135" fill="#DADBD8"/>
<path d="M503.541 130.916L523.549 190.829L448.608 215.857L428.599 155.944L503.541 130.916Z" fill="#F3F2F1"/>
<path d="M449.932 211.223L519.609 187.953L502.119 135.583L432.441 158.852L449.932 211.223" fill="#E7E8E5"/>
<path d="M449.932 211.223L463.396 170.543L485.273 185.875L491.863 171.572L519.609 187.953L449.932 211.223Z" fill="#DADBD8"/>
<path d="M483.539 159.383C484.552 162.414 482.915 165.689 479.885 166.701C476.856 167.713 473.579 166.078 472.567 163.048C471.555 160.018 473.191 156.742 476.221 155.73C479.251 154.718 482.528 156.354 483.539 159.383Z" fill="#DADBD8"/>
<path d="M622.811 84.1631L604.467 177.831L487.303 154.886L505.648 61.2164L622.811 84.1631Z" fill="#F3F2F1"/>
<path d="M622.811 84.1627C622.811 84.1627 622.611 84.136 622.239 84.0694C621.849 83.9974 621.304 83.896 620.591 83.7654C619.125 83.4867 616.991 83.0827 614.217 82.556C608.641 81.484 600.515 79.9214 590.213 77.9414C569.627 73.9494 540.367 68.2747 505.587 61.5294L505.961 61.2774C500.512 89.16 494.265 121.123 487.655 154.944L487.653 154.953L487.372 154.535C530.743 163.052 571.048 170.967 604.523 177.54L604.175 177.775C609.761 149.584 614.392 126.216 617.631 109.871C619.264 101.7 620.545 95.2894 621.424 90.8987C621.865 88.72 622.205 87.0467 622.439 85.8947C622.672 84.7601 622.811 84.1627 622.811 84.1627C622.811 84.1627 622.723 84.7254 622.515 85.844C622.299 86.9867 621.985 88.6454 621.577 90.8067C620.737 95.1894 619.511 101.588 617.947 109.744C614.772 126.145 610.233 149.597 604.757 177.888L604.701 178.179L604.409 178.123C570.928 171.583 530.615 163.708 487.235 155.235L486.884 155.167L486.953 154.816L486.955 154.807C493.592 120.989 499.864 89.032 505.335 61.1547L505.396 60.8414L505.709 60.9027C540.548 67.7934 569.857 73.5894 590.477 77.668C600.735 79.7134 608.827 81.328 614.379 82.4347C617.119 82.988 619.228 83.4147 620.675 83.7067C621.371 83.8507 621.903 83.9614 622.281 84.04C622.64 84.116 622.811 84.1627 622.811 84.1627" fill="#DADBD8"/>
<path d="M492.497 149.78L601.429 171.113L617.464 89.2373L508.532 67.9039L492.497 149.78" fill="#E7E8E5"/>
<path d="M492.497 149.78L540.512 106.337L557.844 142.795L577.163 128.904L601.429 171.113L492.497 149.78" fill="#DADBD8"/>
<path d="M575.305 106.679C574.377 111.416 569.785 114.504 565.048 113.576C560.312 112.648 557.224 108.056 558.151 103.319C559.079 98.5827 563.671 95.4947 568.408 96.4227C573.145 97.3494 576.233 101.941 575.305 106.679" fill="#DADBD8"/>
<path d="M54.8452 9.27617L60.902 79.9215L88.3009 87.3481L141.439 81.1668L133.956 1.6455L54.8452 9.27617" fill="#F3F2F1"/>
<path d="M69.2541 73.5655L60.9021 79.9215C60.9021 79.9215 65.9541 84.4495 71.8 85.9735C77.6453 87.4975 82.986 87.9668 88.301 87.3482C88.301 87.3482 75.6406 85.1522 69.2541 73.5655" fill="#E7E8E5"/>
<path d="M127.564 27.6203C127.577 27.751 114.123 29.163 97.5168 30.7737C80.9058 32.383 67.434 33.583 67.4209 33.451C67.4085 33.3203 80.8594 31.9083 97.4709 30.2977C114.076 28.6883 127.551 27.4883 127.564 27.6203Z" fill="#DADBD8"/>
<path d="M128.35 38.4924C128.362 38.6231 114.908 40.0351 98.303 41.6457C81.6917 43.2564 68.2197 44.4551 68.2073 44.3231C68.1948 44.1924 81.6458 42.7804 98.2568 41.1711C114.862 39.5604 128.337 38.3617 128.35 38.4924Z" fill="#DADBD8"/>
<path d="M129.619 48.0748C129.631 48.2068 116.177 49.6175 99.5719 51.2281C82.961 52.8375 69.4891 54.0374 69.4761 53.9068C69.4637 53.7748 82.9146 52.3628 99.5261 50.7534C116.131 49.1428 129.606 47.9441 129.619 48.0748Z" fill="#DADBD8"/>
<path d="M130.453 57.3391C130.466 57.4698 117.011 58.8818 100.406 60.4925C83.7948 62.1018 70.3229 63.3018 70.3098 63.1698C70.2973 63.0391 83.7484 61.6284 100.36 60.0164C116.965 58.4071 130.44 57.2084 130.453 57.3391" fill="#DADBD8"/>
<path d="M627.709 578.191C627.709 578.388 487.181 578.547 313.871 578.547C140.499 578.547 0 578.388 0 578.191C0 577.994 140.499 577.833 313.871 577.833C487.181 577.833 627.709 577.994 627.709 578.191" fill="#17282F"/>
<path d="M37.772 132.13L93.9902 454.031L331.021 416.804L342.008 390.267L277.885 92.6189L55.7006 105.88L37.772 132.13Z" fill="#DADBD8"/>
<path d="M37.772 132.129L54.6116 106.319L54.6381 106.471C54.6662 106.631 54.7105 106.888 54.7714 107.24L37.772 132.129Z" fill="#A7A9A8"/>
<path d="M93.9902 454.031L87.7152 418.1L87.6058 417.472L86.861 413.211L82.9433 390.778L79.4881 370.995L78.7752 366.912L74.9954 345.268L74.935 344.92L37.772 132.13L54.7714 107.24C56.8876 119.427 78.7996 245.635 110.509 428.274L110.565 428.591L110.589 428.587L106.369 435.055C105.992 435.116 105.62 435.176 105.242 435.236C103.015 422.612 100.682 409.386 98.3074 395.923C85.384 322.944 73.6861 256.883 65.2157 209.051C60.9496 185.156 57.497 165.819 55.1074 152.435C53.9006 145.766 52.9632 140.583 52.3236 137.05C51.9996 135.303 51.7522 133.968 51.5818 133.051C51.4105 132.151 51.3048 131.692 51.3048 131.692C51.3048 131.692 51.3626 132.159 51.51 133.063C51.6641 133.984 51.8886 135.323 52.1818 137.074C52.7913 140.614 53.6845 145.803 54.834 152.483C57.1704 165.876 60.547 185.227 64.7189 209.138C73.1365 256.98 84.7616 323.054 97.6042 396.048C100.003 409.631 102.36 422.975 104.608 435.702L104.668 436.044L105.012 435.988C105.292 435.943 105.569 435.898 105.849 435.852L99.1804 446.075C96.4105 430.842 93.5304 415.004 90.5881 398.823C77.4522 326.863 65.5616 261.724 56.9517 214.559C52.6157 190.999 49.1069 171.932 46.6782 158.735C45.4517 152.159 44.499 147.05 43.849 143.564C43.5204 141.843 43.2689 140.527 43.096 139.622C42.9225 138.735 42.8152 138.283 42.8152 138.283C42.8152 138.283 42.8741 138.743 43.0241 139.635C43.1808 140.543 43.4094 141.863 43.708 143.59C44.3272 147.08 45.2356 152.198 46.4048 158.784C48.7808 171.991 52.2137 191.072 56.4553 214.65C65.0126 261.824 76.8304 326.976 89.8861 398.951C92.8564 415.26 95.7626 431.22 98.5569 446.564L98.6184 446.904L98.6418 446.9L93.9902 454.031" fill="#8F9192"/>
<path d="M54.6116 106.319L110.829 428.218L342.008 390.267L283.608 73.6631L54.6116 106.319Z" fill="#FAFAF9"/>
<path d="M54.6116 106.319C56.9637 105.98 144.604 93.3708 283.567 73.3775L283.841 73.3375L283.892 73.6108C300.231 162.081 320.468 271.667 342.36 390.203L342.425 390.56L342.067 390.619C340.864 390.816 339.557 391.031 338.251 391.245C256.905 404.588 179.692 417.252 110.882 428.539L110.565 428.591L110.509 428.273C77.498 238.137 55.1048 109.16 54.6116 106.319C55.11 109.156 77.76 238.092 111.149 428.161L110.777 427.897C179.583 416.592 256.793 403.907 338.135 390.541C339.441 390.327 340.748 390.112 341.951 389.915L341.657 390.332C319.816 271.787 299.624 162.193 283.323 73.7161L283.648 73.9495C144.636 93.5948 56.9632 105.985 54.6116 106.319Z" fill="#17282F"/>
<path d="M239.829 247.404C243.225 268.9 228.552 289.08 207.056 292.476C185.559 295.872 165.38 281.199 161.984 259.702C158.588 238.206 173.261 218.026 194.757 214.63C216.255 211.234 236.435 225.907 239.829 247.404Z" fill="#372385"/>
<path d="M182.844 263.899L181.053 252.563L220.353 246.354L222.031 256.976C222.031 256.976 219.635 266.143 203.736 268.655C187.837 271.166 182.844 263.899 182.844 263.899Z" fill="white"/>
<path d="M174.857 252.628L202.889 257.605L227.216 243.924L199.129 239.496L174.857 252.628" fill="white"/>
<path d="M254.763 151.741L115.427 173.753C113.719 174.023 112.117 172.857 111.847 171.151L111.375 168.163C111.106 166.456 112.271 164.853 113.978 164.583L253.313 142.572C255.02 142.301 256.623 143.467 256.892 145.175L257.364 148.163C257.635 149.869 256.469 151.472 254.763 151.741" fill="#DADBD8"/>
<path d="M232.708 174.924L144.347 188.883C142.64 189.152 141.037 187.987 140.768 186.28L140.296 183.292C140.025 181.584 141.191 179.983 142.899 179.712L231.26 165.753C232.967 165.484 234.569 166.649 234.839 168.356L235.311 171.344C235.58 173.051 234.415 174.653 232.708 174.924Z" fill="#DADBD8"/>
<path d="M264.528 372.428L176.167 386.387C174.46 386.656 172.857 385.491 172.588 383.784L172.116 380.796C171.847 379.088 173.011 377.487 174.719 377.216L263.08 363.258C264.787 362.988 266.389 364.154 266.659 365.86L267.131 368.848C267.401 370.556 266.236 372.158 264.528 372.428Z" fill="#DADBD8"/>
<path d="M330.112 399.211C330.112 399.211 329.735 399.295 328.991 399.425C328.229 399.557 327.125 399.747 325.681 399.995C322.749 400.483 318.449 401.2 312.895 402.125C301.741 403.955 285.571 406.608 265.419 409.915C225.069 416.473 168.792 425.621 105.012 435.988L104.668 436.044L104.608 435.701C102.36 422.975 100.003 409.631 97.6042 396.048C84.7615 323.053 73.1364 256.98 64.7188 209.137C60.547 185.227 57.1703 165.876 54.8339 152.483C53.6844 145.803 52.7912 140.613 52.1818 137.073C51.8886 135.323 51.664 133.984 51.5099 133.063C51.3626 132.159 51.3047 131.692 51.3047 131.692C51.3047 131.692 51.4104 132.151 51.5818 133.051C51.7522 133.968 51.9995 135.303 52.3235 137.049C52.9631 140.583 53.9006 145.765 55.1074 152.435C57.497 165.819 60.9495 185.156 65.2156 209.051C73.686 256.883 85.3839 322.944 98.3073 395.923C100.703 409.507 103.057 422.852 105.303 435.579L104.899 435.292C168.695 425.019 224.985 415.953 265.344 409.453C285.511 406.236 301.693 403.655 312.853 401.875C318.417 401.001 322.724 400.325 325.66 399.865C327.109 399.645 328.216 399.476 328.98 399.36C329.728 399.251 330.112 399.211 330.112 399.211Z" fill="#17282F"/>
<path d="M312.484 411.322C312.484 411.322 312.129 411.402 311.427 411.528C310.708 411.654 309.667 411.836 308.304 412.075C305.537 412.544 301.477 413.234 296.231 414.124C285.693 415.884 270.407 418.439 251.325 421.627C213.12 427.951 159.736 436.788 98.9589 446.849L98.6184 446.904L98.5569 446.564C95.7627 431.22 92.8564 415.26 89.8861 398.951C76.8304 326.976 65.0127 261.824 56.4553 214.65C52.2137 191.072 48.7808 171.991 46.4048 158.784C45.2356 152.198 44.3272 147.08 43.708 143.59C43.4095 141.863 43.1808 140.543 43.0241 139.635C42.8741 138.743 42.8152 138.283 42.8152 138.283C42.8152 138.283 42.9225 138.735 43.096 139.622C43.2689 140.527 43.5204 141.843 43.8491 143.564C44.4991 147.05 45.4517 152.159 46.6783 158.735C49.1069 171.932 52.6157 190.999 56.9517 214.559C65.5616 261.724 77.4522 326.863 90.5881 398.823C93.5542 415.134 96.4564 431.094 99.247 446.439L98.8449 446.156C159.637 436.191 213.035 427.439 251.251 421.175C270.347 418.075 285.645 415.591 296.191 413.879C301.445 413.04 305.512 412.391 308.284 411.948C309.651 411.736 310.695 411.575 311.416 411.464C312.121 411.359 312.484 411.322 312.484 411.322Z" fill="#17282F"/>
<path d="M60.1954 242.632L54.9954 250.003L67.6407 325.849L75.1751 328.405L60.1954 242.632" fill="#17282F"/>
<path d="M111.267 322.103L75.175 328.405L60.1953 242.632L96.2864 236.329L111.267 322.103" fill="#17282F"/>
<path d="M113.494 324.708L111.146 325.119C109.805 325.352 108.528 324.455 108.293 323.114L93.1214 236.242C92.887 234.9 93.785 233.623 95.1261 233.39L97.4741 232.979C98.8152 232.744 100.093 233.642 100.327 234.983L115.498 321.855C115.733 323.196 114.836 324.474 113.494 324.708" fill="#17282F"/>
<path d="M88.5323 264.468L87.8741 263.308L64.4517 276.606L65.1099 277.766L66.0829 276.854C63.0203 273.584 58.6829 271.606 54.0209 271.604C53.2246 271.604 52.4194 271.663 51.6105 271.782C43.4698 272.992 37.4829 280.147 37.4719 288.191C37.4719 288.907 37.5198 289.628 37.6183 290.354C38.7563 298.723 45.8927 304.687 53.9913 304.687C54.9361 304.687 55.8933 304.606 56.8542 304.438C62.6058 303.432 67.135 299.559 69.2427 294.556L68.0141 294.038L67.8042 295.355L94.2433 299.568H94.2438C94.4079 299.594 94.5725 299.607 94.7355 299.607C96.4433 299.6 97.8126 298.226 97.8189 296.523C97.8189 296.346 97.8037 296.166 97.7725 295.987L92.4413 265.463C92.3099 264.699 91.8985 264.042 91.3506 263.599C90.8022 263.155 90.1167 262.906 89.3965 262.904C88.8839 262.903 88.3527 263.035 87.8735 263.308H87.8741L88.5323 264.468L89.1907 265.627L89.3965 265.571L89.6689 265.67L89.8146 265.922L95.1454 296.446L95.1522 296.523L95.0282 296.816L94.7355 296.94L94.6631 296.935L67.1918 292.556L66.7855 293.52C65.0089 297.726 61.2209 300.968 56.3954 301.811C55.5865 301.951 54.7829 302.02 53.9913 302.02C47.2079 302.019 41.211 297.02 40.2605 289.995C40.1787 289.39 40.1386 288.788 40.1386 288.191C40.1282 281.484 45.2173 275.403 51.9985 274.42C52.6787 274.32 53.3537 274.271 54.0209 274.271C57.9219 274.271 61.5631 275.93 64.137 278.676L64.8547 279.443L89.2678 265.583L89.1907 265.627L88.5323 264.468" fill="#33535F"/>
<path d="M108.098 321.999C108.074 321.999 108.009 321.699 107.909 321.143C107.79 320.507 107.636 319.692 107.447 318.686C107.04 316.458 106.478 313.387 105.79 309.63C104.41 301.896 102.53 291.363 100.453 279.726C98.4343 268.072 96.6072 257.528 95.2666 249.79C94.6458 246.02 94.1379 242.939 93.7696 240.704C93.6176 239.69 93.4942 238.868 93.3978 238.228C93.3207 237.66 93.2916 237.36 93.316 237.356C93.3406 237.352 93.4166 237.643 93.5395 238.203C93.6696 238.838 93.8368 239.651 94.0431 240.656C94.466 242.88 95.0494 245.948 95.7635 249.702C97.1838 257.346 99.0963 267.915 101.156 279.602C103.214 291.284 105.028 301.871 106.287 309.543C106.917 313.38 107.408 316.488 107.721 318.64C107.872 319.719 107.996 320.55 108.052 321.127C108.107 321.704 108.123 322 108.098 321.999" fill="#33535F"/>
<path d="M74.4609 328.699C74.4364 328.697 74.3713 328.399 74.2713 327.841C74.1521 327.207 73.9989 326.392 73.8098 325.385C73.4021 323.157 72.8401 320.085 72.1526 316.328C70.7724 308.596 68.8926 298.063 66.8156 286.425C64.7969 274.772 62.9697 264.228 61.6292 256.489C61.0084 252.719 60.5005 249.637 60.1322 247.404C59.9802 246.389 59.8568 245.568 59.7604 244.928C59.6833 244.36 59.6541 244.06 59.6786 244.056C59.703 244.051 59.7792 244.343 59.9021 244.903C60.0322 245.537 60.1994 246.349 60.4057 247.355C60.8286 249.58 61.4125 252.648 62.126 256.401C63.5464 264.045 65.4588 274.615 67.5182 286.301C69.576 297.984 71.3901 308.569 72.6494 316.243C73.2797 320.079 73.7702 323.187 74.0838 325.34C74.2349 326.419 74.3588 327.249 74.4145 327.827C74.4693 328.404 74.4854 328.7 74.4609 328.699" fill="#33535F"/>
<path d="M227.216 243.924C227.24 243.967 226.584 244.39 225.376 245.118C224.052 245.895 222.317 246.915 220.223 248.146C215.856 250.676 209.793 254.131 203.064 257.916L202.952 257.979L202.827 257.958L202.552 257.908C194.887 256.547 187.953 255.276 182.943 254.32C180.533 253.846 178.536 253.452 177.013 253.152C175.617 252.86 174.848 252.676 174.857 252.628C174.865 252.58 175.651 252.671 177.063 252.879C178.595 253.122 180.605 253.439 183.031 253.823C188.064 254.652 195.011 255.844 202.677 257.206L202.951 257.255L202.715 257.295C209.444 253.511 215.547 250.126 219.977 247.708C222.116 246.558 223.888 245.604 225.24 244.878C226.491 244.223 227.192 243.882 227.216 243.924" fill="#17282F"/>
<path d="M146.349 132.482L141.592 133.234L141.396 131.996L152.342 130.267L152.538 131.505L147.781 132.256L149.724 144.556L148.292 144.782L146.349 132.482ZM165.942 128.118L168.081 141.656L166.669 141.879L165.682 135.632L157.212 136.97L158.198 143.217L156.767 143.443L154.629 129.906L156.06 129.68L157.013 135.713L165.483 134.375L164.53 128.341L165.942 128.118ZM181.876 138.208L182.072 139.445L172.499 140.958L170.361 127.42L179.643 125.954L179.839 127.192L171.987 128.432L172.748 133.247L179.749 132.142L179.941 133.36L172.94 134.466L173.735 139.494L181.876 138.208ZM189.187 138.44C188.181 138.599 187.189 138.591 186.209 138.415C185.243 138.238 184.467 137.924 183.881 137.475L184.267 136.284C184.835 136.697 185.549 136.993 186.41 137.174C187.269 137.343 188.13 137.359 188.994 137.222C190.206 137.031 191.08 136.668 191.617 136.134C192.152 135.587 192.363 134.959 192.251 134.25C192.166 133.708 191.93 133.303 191.544 133.033C191.17 132.762 190.732 132.58 190.229 132.488C189.723 132.383 189.028 132.294 188.145 132.222C187.086 132.125 186.235 132.009 185.592 131.873C184.947 131.723 184.367 131.438 183.852 131.018C183.349 130.595 183.031 129.965 182.899 129.127C182.791 128.443 182.873 127.796 183.147 127.184C183.418 126.56 183.901 126.021 184.596 125.568C185.291 125.115 186.193 124.8 187.302 124.625C188.075 124.503 188.847 124.493 189.616 124.597C190.397 124.685 191.087 124.873 191.688 125.161L191.384 126.379C190.758 126.094 190.108 125.913 189.435 125.834C188.76 125.743 188.113 125.746 187.494 125.844C186.308 126.031 185.449 126.405 184.916 126.964C184.394 127.509 184.19 128.143 184.304 128.865C184.39 129.406 184.62 129.819 184.996 130.104C185.382 130.373 185.834 130.559 186.352 130.662C186.882 130.75 187.582 130.831 188.452 130.905C189.484 130.993 190.322 131.112 190.966 131.261C191.622 131.396 192.201 131.674 192.704 132.097C193.205 132.507 193.52 133.124 193.651 133.949C193.759 134.633 193.67 135.287 193.386 135.914C193.113 136.525 192.622 137.059 191.915 137.514C191.205 137.956 190.295 138.265 189.187 138.44ZM195.195 123.497L196.627 123.271L198.765 136.808L197.334 137.034L195.195 123.497ZM206.921 135.639C205.915 135.798 204.922 135.789 203.943 135.614C202.977 135.436 202.201 135.123 201.614 134.673L202.001 133.483C202.568 133.895 203.283 134.192 204.144 134.373C205.003 134.541 205.864 134.557 206.728 134.421C207.94 134.229 208.814 133.866 209.351 133.332C209.886 132.785 210.097 132.157 209.985 131.448C209.899 130.907 209.664 130.501 209.277 130.232C208.904 129.961 208.466 129.779 207.962 129.686C207.457 129.581 206.762 129.493 205.879 129.421C204.82 129.324 203.969 129.207 203.326 129.071C202.681 128.922 202.101 128.637 201.585 128.216C201.082 127.793 200.765 127.163 200.632 126.325C200.525 125.642 200.607 124.994 200.881 124.383C201.152 123.759 201.635 123.22 202.33 122.766C203.025 122.313 203.927 121.999 205.035 121.824C205.809 121.701 206.58 121.692 207.35 121.795C208.13 121.883 208.821 122.071 209.421 122.36L209.118 123.577C208.492 123.293 207.842 123.111 207.169 123.033C206.494 122.941 205.847 122.944 205.228 123.042C204.042 123.229 203.182 123.603 202.65 124.163C202.128 124.708 201.924 125.341 202.038 126.063C202.124 126.605 202.354 127.018 202.729 127.302C203.115 127.571 203.568 127.758 204.086 127.861C204.615 127.949 205.315 128.03 206.186 128.104C207.218 128.192 208.056 128.311 208.7 128.46C209.356 128.594 209.935 128.873 210.438 129.295C210.939 129.705 211.254 130.323 211.385 131.148C211.492 131.831 211.404 132.486 211.12 133.112C210.847 133.724 210.356 134.257 209.648 134.713C208.939 135.155 208.029 135.464 206.921 135.639Z" fill="#17282F"/>
<path d="M361.115 459.044H247.433C234.439 459.044 223.904 448.509 223.904 435.515V422.917C223.904 409.923 234.439 399.388 247.433 399.388H361.115V459.044Z" fill="#4CCF41"/>
<path d="M571.167 409.292H331.395V399.388H571.167C573.324 399.388 575.072 401.137 575.072 403.295V405.385C575.072 407.543 573.324 409.292 571.167 409.292Z" fill="#4CCF41"/>
<path d="M571.167 459.044H331.395V449.14H571.167C573.324 449.14 575.072 450.889 575.072 453.047V455.137C575.072 457.294 573.324 459.044 571.167 459.044Z" fill="#4CCF41"/>
<path d="M567.804 449.14H358.588C347.584 449.14 338.663 440.22 338.663 429.216C338.663 418.212 347.584 409.292 358.588 409.292H567.804C562.193 422.575 562.193 435.858 567.804 449.14" fill="#F3F2F1"/>
<path d="M262.325 459.044H247.9C234.648 459.044 223.904 448.3 223.904 435.048V423.201C223.904 410.049 234.565 399.388 247.716 399.388H331.395V408.152C322.609 420.368 323.28 437.759 331.395 450.585V457.212H270.092C267.3 457.212 264.661 457.872 262.325 459.044" fill="#76EE6B"/>
<path d="M331.395 408.152V399.388H336.077V401.754H337.52C335.12 403.65 333.083 405.806 331.395 408.152Z" fill="#4CCF41"/>
<path d="M336.687 457.212H331.395V450.585C332.905 452.973 334.675 455.204 336.687 457.212Z" fill="#4CCF41"/>
<path d="M542.385 431.066C542.385 431.263 499.443 431.423 446.481 431.423C393.503 431.423 350.569 431.263 350.569 431.066C350.569 430.87 393.503 430.71 446.481 430.71C499.443 430.71 542.385 430.87 542.385 431.066" fill="#17282F"/>
<path d="M562.124 439.923C562.124 440.12 519.181 440.28 466.22 440.28C413.241 440.28 370.308 440.12 370.308 439.923C370.308 439.726 413.241 439.566 466.22 439.566C519.181 439.566 562.124 439.726 562.124 439.923Z" fill="#17282F"/>
<path d="M556.304 418.505C556.304 418.703 513.36 418.863 460.4 418.863C407.421 418.863 364.487 418.703 364.487 418.505C364.487 418.308 407.421 418.148 460.4 418.148C513.36 418.148 556.304 418.308 556.304 418.505Z" fill="#17282F"/>
<path d="M328.159 454.863C328.159 455.06 308.059 455.22 283.268 455.22C258.469 455.22 238.372 455.06 238.372 454.863C238.372 454.666 258.469 454.507 283.268 454.507C308.059 454.507 328.159 454.666 328.159 454.863Z" fill="#17282F"/>
<path d="M328.159 404.34C328.159 404.538 308.059 404.698 283.268 404.698C258.469 404.698 238.372 404.538 238.372 404.34C238.372 404.143 258.469 403.984 283.268 403.984C308.059 403.984 328.159 404.143 328.159 404.34Z" fill="#17282F"/>
<path d="M350.421 577.745H197.245C184.251 577.745 173.716 567.211 173.716 554.216V524.449C173.716 511.455 184.251 500.92 197.245 500.92H350.421V577.745Z" fill="#3DB2C2"/>
<path d="M622.06 513.673H312.148V500.92H622.06C624.217 500.92 625.967 502.668 625.967 504.825V509.767C625.967 511.924 624.217 513.673 622.06 513.673" fill="#3DB2C2"/>
<path d="M622.06 577.745H312.148V564.992H622.06C624.217 564.992 625.967 566.741 625.967 568.899V573.84C625.967 575.997 624.217 577.745 622.06 577.745" fill="#3DB2C2"/>
<path d="M616.605 564.992H347.167C332.996 564.992 321.508 553.504 321.508 539.332C321.508 525.161 332.996 513.673 347.167 513.673H616.605C609.38 530.78 609.38 547.885 616.605 564.992" fill="#F3F2F1"/>
<path d="M321.508 577.745H196.941C195.881 577.745 194.839 577.675 193.817 577.537H194.097C195.127 577.675 196.179 577.745 197.245 577.745H312.148H321.508" fill="#A7A9A8"/>
<path d="M312.148 577.745H197.245C196.179 577.745 195.127 577.675 194.097 577.537L226.907 577.466C226.907 577.466 226.993 577.424 227.145 577.331L233.488 577.429C233.488 577.429 233.489 577.429 233.491 577.429C233.619 577.429 240.619 577.408 244.868 572.718C246.612 572.719 248.381 572.719 250.167 572.719C282.093 572.719 307.98 572.559 307.98 572.361C307.98 572.165 282.093 572.006 250.167 572.006C248.583 572.006 247.015 572.006 245.463 572.007C246.505 570.651 247.325 568.957 247.748 566.84C249.901 556.048 252.227 524.004 252.227 524.004C252.227 524.004 244.349 517.155 238.493 514.211L230.056 515.436C229.829 515.232 229.597 515.032 229.361 514.836C226.287 512.395 222.548 510.741 218.588 509.694C216.605 509.147 214.527 508.909 212.428 508.807C212.427 508.807 212.425 508.807 212.424 508.807C210.325 508.807 208.193 508.928 206.099 509.387C201.88 510.194 197.847 511.955 193.945 513.956C191.185 515.361 188.545 516.895 185.784 518.066C183.009 519.315 180.369 520.689 177.751 522.029C176.851 522.494 175.957 522.959 175.068 523.421L173.755 523.612C174.457 510.961 184.937 500.92 197.764 500.92H266.972C267.984 501.104 269.027 501.199 270.092 501.199H270.208H312.148V512.205C300.832 527.937 301.697 550.335 312.148 566.853V577.745Z" fill="#6ACFDD"/>
<path d="M312 512.007V501H323.828C318.969 504.024 315.044 507.774 312 512.007Z" fill="#33ABBB"/>
<path d="M321.36 577.546H312V566.655C314.557 570.7 317.691 574.391 321.36 577.546" fill="#33ABBB"/>
<path d="M583.871 541.715C583.871 541.912 528.567 542.072 460.361 542.072C392.133 542.072 336.841 541.912 336.841 541.715C336.841 541.518 392.133 541.359 460.361 541.359C528.567 541.359 583.871 541.518 583.871 541.715Z" fill="#17282F"/>
<path d="M609.289 553.121C609.289 553.319 553.987 553.478 485.781 553.478C417.553 553.478 362.261 553.319 362.261 553.121C362.261 552.924 417.553 552.764 485.781 552.764C553.987 552.764 609.289 552.924 609.289 553.121Z" fill="#17282F"/>
<path d="M601.795 531.131C601.795 531.327 546.491 531.487 478.285 531.487C410.057 531.487 354.765 531.327 354.765 531.131C354.765 530.933 410.057 530.773 478.285 530.773C546.491 530.773 601.795 530.933 601.795 531.131Z" fill="#17282F"/>
<path d="M307.98 572.361C307.98 572.559 282.093 572.719 250.167 572.719C218.229 572.719 192.348 572.559 192.348 572.361C192.348 572.166 218.229 572.006 250.167 572.006C282.093 572.006 307.98 572.166 307.98 572.361Z" fill="#17282F"/>
<path d="M307.98 507.296C307.98 507.494 282.093 507.654 250.167 507.654C218.229 507.654 192.348 507.494 192.348 507.296C192.348 507.1 218.229 506.94 250.167 506.94C282.093 506.94 307.98 507.1 307.98 507.296Z" fill="#17282F"/>
<path d="M396.311 501.199H270.092C260.511 501.199 252.743 493.433 252.743 483.85V474.562C252.743 464.98 260.511 457.212 270.092 457.212H396.311V501.199Z" fill="#33535F"/>
<path d="M616.095 467.573H365.213V457.212H616.095C618.352 457.212 620.183 459.042 620.183 461.299V463.487C620.183 465.744 618.352 467.573 616.095 467.573Z" fill="#33535F"/>
<path d="M616.095 501.199H365.213V490.838H616.095C618.352 490.838 620.183 492.667 620.183 494.924V497.112C620.183 499.369 618.352 501.199 616.095 501.199Z" fill="#33535F"/>
<path d="M612.577 490.837H384.451C378.027 490.837 372.819 485.63 372.819 479.206C372.819 472.782 378.027 467.573 384.451 467.573H612.577C606.707 475.328 606.707 483.083 612.577 490.837Z" fill="#F3F2F1"/>
<path d="M365.213 501.199H270.208C260.563 501.199 252.743 493.38 252.743 483.733V475.031C252.743 465.19 260.72 457.212 270.561 457.212H365.213V463.674C356.02 472.682 356.723 485.506 365.213 494.963V501.199Z" fill="#20353D"/>
<path d="M365.213 463.673V457.212H375.195C371.076 458.971 367.764 461.175 365.213 463.673Z" fill="#20353D"/>
<path d="M372.819 501.199H365.213V494.963C367.292 497.279 369.837 499.392 372.819 501.199Z" fill="#20353D"/>
<path d="M585.98 477.374C585.98 477.571 541.048 477.731 485.633 477.731C430.2 477.731 385.276 477.571 385.276 477.374C385.276 477.178 430.2 477.018 485.633 477.018C541.048 477.018 585.98 477.178 585.98 477.374Z" fill="#17282F"/>
<path d="M606.633 483.635C606.633 483.832 561.7 483.992 506.287 483.992C450.852 483.992 405.929 483.832 405.929 483.635C405.929 483.439 450.852 483.279 506.287 483.279C561.7 483.279 606.633 483.439 606.633 483.635Z" fill="#17282F"/>
<path d="M361.828 496.825C361.828 497.023 340.796 497.182 314.856 497.182C288.908 497.182 267.88 497.023 267.88 496.825C267.88 496.628 288.908 496.468 314.856 496.468C340.796 496.468 361.828 496.628 361.828 496.825Z" fill="#17282F"/>
<path d="M361.828 462.394C361.828 462.59 340.796 462.75 314.856 462.75C288.908 462.75 267.88 462.59 267.88 462.394C267.88 462.196 288.908 462.036 314.856 462.036C340.796 462.036 361.828 462.196 361.828 462.394Z" fill="#17282F"/>
<path d="M617.188 457.212C617.188 457.41 540.033 457.568 444.881 457.568C349.696 457.568 272.557 457.41 272.557 457.212C272.557 457.015 349.696 456.855 444.881 456.855C540.033 456.855 617.188 457.015 617.188 457.212Z" fill="#17282F"/>
<path d="M478.821 417.852V441.744L487.104 436.435L496.34 441.744V417.852H478.821Z" fill="#F2575D"/>
<path d="M562.971 180.695L521.284 215.418L457.864 340.706L497.404 358.574L559.076 235.698L562.971 180.695Z" fill="#F2575D"/>
<path d="M547.679 235.803C546.491 235.803 545.307 235.589 544.201 235.144C540.484 233.647 537.941 229.635 538.172 225.635C536.548 226.505 534.708 226.936 532.868 226.937C530.912 226.937 528.956 226.449 527.256 225.485C527.024 225.351 526.792 225.205 526.561 225.049C525.613 224.408 524.817 223.647 524.163 222.841C522.429 220.696 521.463 217.92 521.597 215.16L562.971 180.695L559.076 235.697C558.887 235.723 558.7 235.735 558.515 235.735C557.533 235.735 556.629 235.391 556.004 234.788C555.681 234.46 555.404 234.023 555.22 233.44C555.175 233.257 555.145 233.067 555.136 232.868C555.139 232.74 555.145 232.608 555.14 232.473C553.308 234.611 550.484 235.803 547.679 235.803" fill="#FABDC3"/>
<path d="M546.207 194.659C546.207 194.659 546.837 205.031 561.375 203.229L562.971 180.695L546.207 194.659" fill="#F2575D"/>
<path d="M493.847 314.871H470.941L521.284 215.418L521.597 215.16C521.597 215.16 521.36 217.479 522.46 220.036C522.852 220.95 523.416 221.923 524.163 222.842C524.916 223.775 525.815 224.588 526.829 225.23C526.971 225.319 527.112 225.404 527.256 225.486C529.153 226.583 531.111 226.982 532.831 226.982C533.291 226.982 533.732 226.954 534.152 226.902C536.512 226.615 538.172 225.635 538.172 225.635L493.847 314.871" fill="#CC4341"/>
<path d="M527.256 225.485C527.112 225.404 526.971 225.319 526.829 225.229C525.815 224.588 524.916 223.775 524.163 222.841C524.817 223.647 525.613 224.408 526.561 225.049C526.792 225.205 527.024 225.351 527.256 225.485Z" fill="#B28384"/>
<path d="M519.339 314.871H513.341L555.14 232.474C555.131 232.608 555.129 232.74 555.136 232.868C555.133 233.014 555.137 233.151 555.172 233.278C555.187 233.332 555.203 233.387 555.22 233.44C555.352 233.97 555.628 234.426 556.004 234.788C556.801 235.598 557.873 235.736 558.519 235.736C558.856 235.736 559.076 235.698 559.076 235.698L519.339 314.871" fill="#CC4341"/>
<path d="M556.004 234.788C555.628 234.425 555.352 233.969 555.22 233.44C555.404 234.023 555.681 234.46 556.004 234.788ZM555.136 232.868C555.129 232.74 555.131 232.608 555.14 232.473C555.145 232.608 555.139 232.74 555.136 232.868Z" fill="#B28384"/>
<path d="M537.869 213.687C537.896 213.697 537.663 213.832 537.652 214.24C537.632 214.616 537.935 215.301 538.723 215.392C539.467 215.485 540.427 215.191 541.352 214.652C541.807 214.365 542.243 213.956 542.476 213.397C542.713 212.852 542.744 212.144 542.36 211.604C541.988 211.055 541.28 210.779 540.555 210.691C539.82 210.597 539.037 210.689 538.24 210.823C536.659 211.107 534.968 211.669 533.477 212.68C532.759 213.193 532.097 213.931 532.012 214.847C531.919 215.752 532.429 216.677 533.179 217.257C534.76 218.408 537.015 218.385 539.015 217.984C543.109 217.092 546.379 213.851 547.168 210.337C547.333 209.46 547.111 208.567 546.545 207.943C545.997 207.304 545.243 206.9 544.501 206.605C542.989 206.047 541.477 205.797 540.104 205.724C537.339 205.581 535.127 206.168 533.679 206.684C532.956 206.957 532.407 207.204 532.041 207.384C531.677 207.568 531.477 207.651 531.477 207.651C531.477 207.651 532.189 207.156 533.637 206.575C535.083 206.021 537.311 205.393 540.113 205.511C541.509 205.572 543.036 205.809 544.592 206.372C545.357 206.672 546.148 207.083 546.747 207.769C547.365 208.439 547.62 209.451 547.443 210.381C546.629 214.053 543.289 217.349 539.08 218.279C538.032 218.512 536.961 218.575 535.917 218.497C534.881 218.405 533.828 218.132 532.997 217.491C532.185 216.857 531.621 215.852 531.725 214.819C531.829 213.776 532.567 212.985 533.315 212.455C534.872 211.411 536.579 210.86 538.199 210.576C539.007 210.447 539.811 210.356 540.584 210.46C541.341 210.559 542.116 210.855 542.536 211.484C542.965 212.103 542.915 212.892 542.652 213.472C542.392 214.075 541.919 214.505 541.441 214.795C540.468 215.34 539.504 215.621 538.703 215.508C537.86 215.391 537.544 214.631 537.591 214.239C537.625 213.801 537.885 213.681 537.869 213.687" fill="white"/>
<path d="M560.229 212.932C560.225 212.968 559.619 212.835 558.516 212.879C557.417 212.914 555.827 213.235 554.043 214.079C552.245 214.902 550.332 216.284 548.285 217.919C546.227 219.512 543.944 221.4 541.033 222.416C538.136 223.426 535.101 223.416 532.548 222.746C529.972 222.084 527.916 220.736 526.459 219.387C524.993 218.022 524.108 216.642 523.585 215.664C523.065 214.679 522.892 214.086 522.892 214.086C522.901 214.082 522.972 214.218 523.097 214.482C523.219 214.746 523.413 215.13 523.688 215.608C524.239 216.559 525.14 217.904 526.603 219.23C528.059 220.54 530.089 221.843 532.617 222.476C535.125 223.12 538.099 223.119 540.935 222.132C543.779 221.142 546.047 219.284 548.115 217.7C550.169 216.078 552.123 214.694 553.953 213.886C555.772 213.055 557.399 212.76 558.512 212.762C559.631 212.754 560.229 212.932 560.229 212.932" fill="white"/>
<path d="M559.984 225.492C559.955 225.576 559.181 224.331 557.124 224.123C555.127 223.924 552.329 224.493 549.348 225.257C546.36 226.059 543.761 227.131 541.936 228.012C541.02 228.447 540.295 228.832 539.792 229.096C539.293 229.367 539.012 229.508 539 229.491C538.989 229.472 539.251 229.297 539.735 228.995C540.22 228.699 540.933 228.283 541.841 227.821C543.652 226.887 546.259 225.773 549.269 224.965C550.772 224.557 552.228 224.263 553.561 224.061C554.893 223.856 556.125 223.764 557.151 223.911C558.181 224.043 558.953 224.457 559.393 224.825C559.832 225.205 559.984 225.492 559.984 225.492Z" fill="white"/>
<path d="M542.679 234.313C542.657 234.284 543.169 233.832 544.072 233.189C544.972 232.565 546.315 231.709 548.024 231.421C549.736 231.099 551.353 231.676 552.18 232.444C552.607 232.817 552.871 233.2 553.012 233.479C553.155 233.759 553.191 233.931 553.176 233.936C553.124 233.969 552.896 233.284 552.044 232.608C551.219 231.921 549.709 231.413 548.073 231.719C546.439 231.993 545.113 232.792 544.191 233.367C543.267 233.959 542.705 234.351 542.679 234.313Z" fill="white"/>
<path d="M561.32 205.464C561.325 205.473 561.256 205.529 561.12 205.629C560.984 205.729 560.783 205.877 560.511 206.053C560.24 206.224 559.891 206.437 559.425 206.536C558.961 206.643 558.411 206.58 557.852 206.44C556.717 206.185 555.456 205.616 554.035 205.12C552.611 204.623 550.996 204.217 549.276 203.933C545.831 203.367 542.651 203.352 540.361 203.332C539.367 203.331 538.468 203.329 537.644 203.328C537.001 203.325 536.647 203.315 536.647 203.293C536.645 203.272 537 203.244 537.641 203.211C538.283 203.179 539.211 203.141 540.36 203.119C542.652 203.084 545.848 203.064 549.325 203.635C551.061 203.921 552.692 204.341 554.127 204.859C555.564 205.376 556.799 205.957 557.904 206.232C559.007 206.607 559.917 206.303 560.451 205.952C561.001 205.631 561.307 205.444 561.32 205.464" fill="white"/>
<path d="M605.513 318.69C605.513 347.019 605.513 375.347 605.513 403.676C605.513 411.754 605.513 419.831 605.513 427.908C605.513 429.011 607.225 429.012 607.225 427.908C607.225 399.58 607.225 371.251 607.225 342.923C607.225 334.846 607.225 326.767 607.225 318.69C607.225 317.588 605.513 317.586 605.513 318.69" fill="#FFC700"/>
<path d="M612.552 403.841C612.552 407.243 609.795 410.001 606.392 410.001C602.991 410.001 600.232 407.243 600.232 403.841C600.232 400.439 602.991 397.681 606.392 397.681C609.795 397.681 612.552 400.439 612.552 403.841Z" fill="#FFC700"/>
<path d="M604.652 407.029C604.652 407.029 600.167 411.516 598.82 424.675C597.475 437.833 597.176 444.412 597.176 444.412L609.288 445.16C609.288 445.16 609.288 435.291 609.288 435.74C609.288 436.188 611.68 442.768 611.68 442.768L621.251 439.628C621.251 439.628 617.811 404.637 604.652 407.029Z" fill="#FFC700"/>
<path d="M336.077 401.753H541.68V327.628H336.077V401.753Z" fill="#17282F"/>
<path d="M262.231 327.628H613.901V314.871H262.231V327.628Z" fill="#17282F"/>
<path d="M336.077 380.723V327.628H541.68V344.521C541.68 344.521 531.688 344.08 517.112 344.08C495.251 344.08 463.081 345.073 438.879 350.037C398.54 358.312 336.077 380.723 336.077 380.723" fill="#0F191D"/>
<path d="M389.431 327.628H262.231V314.871H389.431V327.628Z" fill="#0F191D"/>
<path d="M611.349 327.628C611.349 327.824 533.155 327.984 436.717 327.984C340.248 327.984 262.069 327.824 262.069 327.628C262.069 327.431 340.248 327.271 436.717 327.271C533.155 327.271 611.349 327.431 611.349 327.628Z" fill="#33535F"/>
<path d="M389.224 327.735C389.027 327.735 388.867 324.831 388.867 321.25C388.867 317.667 389.027 314.764 389.224 314.764C389.421 314.764 389.581 317.667 389.581 321.25C389.581 324.831 389.421 327.735 389.224 327.735Z" fill="#33535F"/>
<path d="M418.555 401.753C418.357 401.753 418.197 387.291 418.197 369.455C418.197 351.612 418.357 337.152 418.555 337.152C418.751 337.152 418.911 351.612 418.911 369.455C418.911 387.291 418.751 401.753 418.555 401.753Z" fill="#33535F"/>
<path d="M121.119 492.782L144.759 483.242L162.815 436.074L186.884 448.476C186.884 448.476 184.556 453.136 179.581 464.662C177.661 469.11 171.297 481.514 168.704 487.556C163.811 498.962 152.752 506.495 140.347 506.819L118.163 507.396L121.119 492.782" fill="#F9A78D"/>
<path d="M109.377 483.651L105.807 479.897C105.119 479.455 104.314 479.232 103.496 479.256L92.1818 479.6C90.0474 479.811 88.123 480.976 86.9474 482.769L82.8339 489.772C82.8339 489.772 80.0689 494.563 80.4209 495.727C80.9527 497.484 82.8074 497.127 82.8074 497.127C82.8074 497.127 83.199 499.34 83.9413 499.791C85.1782 500.542 86.6891 499.968 86.6891 499.968C87.1006 500.818 87.9751 501.383 88.9167 501.316C89.1042 501.303 89.3011 501.268 89.5042 501.207C90.8474 500.8 91.4527 498.2 91.4527 498.2L97.1897 497.138C97.1897 497.138 105.428 502.645 108.331 506.255C111.235 509.863 118.841 507.106 118.841 507.106L121.688 493.5L109.377 483.651" fill="#F9A78D"/>
<path d="M101.039 485.275C101.047 485.355 100.127 485.532 98.5645 485.687C97.0047 485.86 94.7969 485.924 92.3125 486.245L92.5812 486.048C92.1765 486.933 91.6792 487.85 91.1115 488.757C89.3536 491.567 87.2839 493.76 85.6724 495.192C84.0511 496.626 82.8807 497.292 82.8339 497.22C82.7693 497.13 83.8219 496.327 85.3265 494.824C86.824 493.323 88.7927 491.12 90.5068 488.379C91.0604 487.494 91.5505 486.608 91.9557 485.759L92.0396 485.583L92.2245 485.561C94.7781 485.273 96.9776 485.303 98.5375 485.251C100.099 485.216 101.03 485.191 101.039 485.275" fill="#F57F62"/>
<path d="M101.299 490.673C101.318 490.745 100.54 491.04 99.1682 491.24C97.803 491.44 95.8281 491.502 93.6333 491.047L94.0363 490.819C93.8087 491.488 93.5401 492.182 93.2098 492.871C92.0139 495.376 90.327 497.294 88.9573 498.457C87.5833 499.633 86.5713 500.122 86.5286 500.05C86.4645 499.956 87.3671 499.322 88.615 498.087C89.8619 496.859 91.4171 494.969 92.5661 492.562C92.8838 491.9 93.1473 491.236 93.377 490.597L93.4833 490.3L93.7802 490.367C98.0145 491.312 101.281 490.463 101.299 490.673" fill="#F57F62"/>
<path d="M115.664 493.464C112.301 491.9 108.937 490.338 105.573 488.774C104.176 488.124 102.721 487.461 101.18 487.468C99.5214 487.475 97.9771 488.256 96.5047 489.019C94.6948 489.955 92.885 490.892 91.0751 491.83C90.7803 491.982 90.4594 492.164 90.3552 492.479C90.2188 492.892 90.5178 493.315 90.823 493.624C93.535 496.371 98.4088 496.569 101.336 494.054C102.207 496.424 103.108 498.847 104.739 500.774C106.37 502.702 108.906 504.064 111.389 503.608" fill="#F9A78D"/>
<path d="M111.389 503.609C111.392 503.624 111.3 503.655 111.117 503.697C110.935 503.743 110.658 503.78 110.295 503.79C109.574 503.81 108.475 503.671 107.257 503.052C106.043 502.451 104.723 501.361 103.681 499.792C102.616 498.238 101.822 496.274 101.038 494.163L101.542 494.295C100.054 495.606 97.8849 496.303 95.6666 496.133C94.5578 496.05 93.4317 495.754 92.3912 495.216C91.8812 494.93 91.3786 494.611 90.9354 494.209C90.7166 494.006 90.4833 493.822 90.2833 493.542C90.0942 493.283 89.8885 492.898 89.9958 492.443C90.0864 492.068 90.3734 491.83 90.5989 491.688C90.8396 491.54 91.0453 491.447 91.2568 491.335C91.6786 491.116 92.0984 490.899 92.515 490.685C93.3478 490.255 94.1693 489.833 94.9765 489.416C96.5912 488.615 98.1193 487.679 99.8401 487.297C101.584 486.875 103.286 487.416 104.629 488.022C105.994 488.643 107.222 489.25 108.365 489.794C110.546 490.857 112.355 491.74 113.736 492.415C114.997 493.048 115.685 493.421 115.664 493.464C115.643 493.51 114.916 493.223 113.619 492.667C112.213 492.045 110.373 491.233 108.153 490.251C106.992 489.73 105.736 489.167 104.395 488.566C103.057 487.995 101.539 487.543 99.9822 487.938C98.426 488.295 96.9177 489.218 95.2978 490.036C94.4921 490.456 93.6729 490.881 92.8412 491.315C92.425 491.531 92.0062 491.748 91.5844 491.967C91.1557 492.186 90.7088 492.399 90.688 492.615C90.6021 492.876 90.9917 493.34 91.4062 493.674C91.8041 494.039 92.2598 494.327 92.7213 494.59C93.6666 495.081 94.6994 495.359 95.7202 495.442C97.7645 495.612 99.763 494.987 101.129 493.814L101.479 493.514L101.633 493.944C102.388 496.064 103.129 497.987 104.118 499.504C105.085 501.033 106.295 502.094 107.432 502.721C109.76 503.991 111.415 503.482 111.389 503.609" fill="#F57F62"/>
<path d="M246.92 361.355C247.011 353.782 248.204 346.234 247.913 338.666C247.623 331.099 245.631 323.215 240.351 317.787C235.071 312.358 225.901 310.286 219.723 314.667L218.456 321.111C220.888 350.312 220.556 379.987 222.988 409.188C223.308 413.024 226.421 416.496 228.165 419.928C229.909 423.359 233.411 426.191 237.252 425.955C242.279 425.646 245.579 420.55 247.141 415.763C252.807 398.407 246.7 379.61 246.92 361.355Z" fill="#17282F"/>
<path d="M228.707 322.09C227.607 320.219 226.475 318.319 224.856 316.871C223.239 315.424 221.028 314.475 218.895 314.879C217.891 315.071 216.871 315.642 216.533 316.606C216.196 317.57 216.916 318.859 217.935 318.775L218.152 318.96C220.419 320.967 222.727 322.927 225.072 324.842C225.663 325.323 226.275 325.814 227.004 326.036C227.733 326.26 228.615 326.156 229.12 325.587C229.956 324.644 229.345 323.176 228.707 322.09Z" fill="#F2575D"/>
<path d="M232.985 329.524C225.439 320.299 215.304 314.989 203.387 314.792C196.664 314.68 193.881 316.077 189.039 317.384C184.197 318.691 179.829 321.288 176.94 325.387C173.509 330.256 170.628 335.709 169.979 341.631C169.313 347.712 168.645 353.836 169.105 359.937C169.564 366.039 171.221 372.183 174.813 377.136L190.337 379.832C198.912 380.125 207.604 380.405 215.957 378.451C224.309 376.495 232.425 372 236.899 364.68C243.113 354.511 240.533 338.748 232.985 329.524" fill="#17282F"/>
<path d="M219.172 329.421L198.476 321.195L193.069 321.823C180.904 321.867 172.513 335.283 172.433 345.136C172.345 356.083 172.669 369.451 174.408 377.52C177.905 393.744 191.752 395.095 191.752 395.095C191.752 395.095 191.469 403.74 191.365 409.188L223.051 406.9L224.643 334.979C224.539 331.987 222.161 329.573 219.172 329.421" fill="#F9A78D"/>
<path d="M198.744 373.723C198.632 372.868 198.156 372.111 197.549 371.592C196.337 370.553 194.565 370.452 193.268 371.348C191.971 372.243 191.227 374.079 191.472 375.785C192.2 376.787 193.315 377.463 194.548 377.569C194.74 377.587 194.932 377.593 195.125 377.588C196.061 377.564 197.012 377.248 197.727 376.559C198.441 375.869 198.883 374.777 198.744 373.723" fill="#F57F62"/>
<path d="M177.919 358.988C177.94 360.099 178.899 360.996 180.059 360.995C181.216 360.993 182.14 360.095 182.119 358.984C182.097 357.873 181.139 356.975 179.981 356.976C178.82 356.976 177.896 357.877 177.919 358.988Z" fill="#17282F"/>
<path d="M176.143 350.61C176.417 350.868 177.943 349.606 180.203 349.487C182.457 349.336 184.179 350.407 184.408 350.118C184.523 349.988 184.229 349.508 183.48 349.023C182.74 348.539 181.5 348.096 180.093 348.179C178.687 348.264 177.532 348.847 176.88 349.415C176.216 349.986 176.008 350.494 176.143 350.61Z" fill="#17282F"/>
<path d="M190.657 368.324C190.661 368.195 189.244 368.03 186.952 367.863C186.373 367.835 185.82 367.751 185.701 367.363C185.543 366.954 185.749 366.318 185.992 365.632C186.459 364.207 186.945 362.712 187.457 361.146C189.483 354.763 190.915 349.527 190.657 349.448C190.4 349.368 188.548 354.479 186.523 360.862C186.039 362.435 185.573 363.935 185.132 365.37C184.949 366.036 184.615 366.8 184.957 367.65C185.136 368.072 185.576 368.362 185.952 368.44C186.328 368.534 186.652 368.522 186.939 368.523C189.235 368.52 190.656 368.452 190.657 368.324" fill="#17282F"/>
<path d="M191.725 395.076C191.725 395.076 202.775 395.182 213.324 388.027C213.324 388.027 208.108 399.692 191.643 399.059L191.725 395.076" fill="#F57F62"/>
<path d="M197.391 369.522C197.023 369.52 197.152 371.972 195.148 373.828C193.151 375.688 190.521 375.556 190.521 375.9C190.495 376.056 191.129 376.344 192.233 376.314C193.317 376.292 194.879 375.858 196.104 374.723C197.327 373.586 197.799 372.131 197.827 371.12C197.864 370.091 197.557 369.498 197.391 369.522" fill="#17282F"/>
<path d="M176.911 342.699C177.321 343.23 179.031 342.766 181.06 342.823C183.092 342.815 184.795 343.32 185.211 342.799C185.396 342.546 185.145 342.02 184.415 341.504C183.695 340.99 182.473 340.543 181.077 340.526C179.681 340.51 178.453 340.926 177.727 341.423C176.988 341.922 176.732 342.44 176.911 342.699Z" fill="#17282F"/>
<path d="M202.568 358.419C202.627 359.528 201.736 360.492 200.579 360.573C199.424 360.656 198.437 359.827 198.379 358.717C198.32 357.608 199.212 356.643 200.367 356.56C201.524 356.477 202.509 357.309 202.568 358.419Z" fill="#17282F"/>
<path d="M206.711 349.735C206.455 350.014 204.841 348.864 202.58 348.908C200.32 348.921 198.68 350.113 198.429 349.841C198.307 349.72 198.564 349.222 199.277 348.683C199.98 348.147 201.185 347.615 202.593 347.596C204.003 347.58 205.197 348.079 205.887 348.596C206.592 349.119 206.836 349.61 206.711 349.735" fill="#17282F"/>
<path d="M205.352 342.497C204.916 343.019 203.161 342.517 201.063 342.528C198.964 342.473 197.193 342.94 196.775 342.411C196.591 342.153 196.861 341.633 197.629 341.133C198.387 340.636 199.659 340.217 201.101 340.231C202.544 340.247 203.801 340.691 204.54 341.204C205.292 341.719 205.544 342.244 205.352 342.497" fill="#17282F"/>
<path d="M221.832 362.483C221.768 361.263 223.019 358.312 224.212 358.059C227.399 357.381 233.207 357.321 233.709 365.481C234.395 376.636 223.055 375.024 223.015 374.705C222.984 374.456 222.053 366.691 221.832 362.483Z" fill="#F9A78D"/>
<path d="M225.841 370.442C225.888 370.403 226.044 370.566 226.381 370.696C226.711 370.823 227.268 370.89 227.836 370.636C228.988 370.131 229.865 368.199 229.796 366.186C229.761 365.168 229.489 364.215 229.081 363.436C228.691 362.64 228.128 362.103 227.527 362.035C226.929 361.935 226.531 362.315 226.413 362.638C226.283 362.959 226.368 363.178 226.309 363.2C226.28 363.23 226.059 363.028 226.12 362.562C226.152 362.338 226.267 362.066 226.516 361.835C226.771 361.602 227.157 361.467 227.573 361.486C228.437 361.492 229.26 362.236 229.709 363.09C230.207 363.946 230.536 365.016 230.575 366.158C230.641 368.411 229.62 370.584 228.036 371.15C227.264 371.403 226.595 371.207 226.24 370.964C225.877 370.71 225.804 370.464 225.841 370.442" fill="#F57F62"/>
<path d="M224.668 358.091L221.833 361.031C209.593 349.315 185.675 319.983 187.009 321.731C187.009 321.731 195.395 318.281 204.495 319.832C213.596 321.383 230.857 325.937 230.593 336.671C230.328 347.404 224.668 358.091 224.668 358.091Z" fill="#17282F"/>
<path d="M240.876 355.627C240.895 355.622 240.836 355.4 240.705 354.982C240.572 354.566 240.333 353.962 239.945 353.223C239.169 351.755 237.685 349.767 235.283 347.978C232.916 346.14 229.635 344.64 225.897 343.463C222.165 342.247 217.959 341.303 213.831 339.531C209.673 337.824 205.968 335.624 202.809 333.358C199.659 331.068 197.059 328.694 195.031 326.558C193.001 324.419 191.527 322.536 190.532 321.219C190.076 320.592 189.705 320.083 189.413 319.682C189.153 319.331 189.009 319.152 188.993 319.163C188.976 319.174 189.088 319.374 189.317 319.744C189.551 320.112 189.879 320.667 190.351 321.348C191.293 322.711 192.728 324.643 194.735 326.834C196.741 329.02 199.336 331.448 202.499 333.783C205.672 336.095 209.409 338.334 213.611 340.058C217.793 341.852 222.029 342.786 225.737 343.964C229.459 345.108 232.689 346.54 235.043 348.302C237.429 350.016 238.928 351.92 239.751 353.332C240.569 354.756 240.819 355.648 240.876 355.627" fill="#33535F"/>
<path d="M237.629 357.383C237.629 357.383 237.743 356.469 237.196 354.945C236.676 353.432 235.356 351.377 233.005 349.693C230.676 347.953 227.351 346.879 223.696 346.044C220.027 345.235 216.045 344.199 212.129 342.373C208.22 340.563 204.712 338.369 201.816 336.008C198.905 333.664 196.557 331.229 194.747 329.059C192.913 326.9 191.685 324.957 190.805 323.64C190.421 323.007 190.108 322.489 189.86 322.079C189.637 321.724 189.513 321.541 189.496 321.551C189.477 321.56 189.569 321.76 189.759 322.133C189.984 322.56 190.267 323.096 190.615 323.755C191.44 325.113 192.625 327.104 194.433 329.315C196.219 331.536 198.561 334.025 201.485 336.417C204.393 338.827 207.935 341.061 211.892 342.893C215.847 344.739 219.917 345.78 223.577 346.557C227.227 347.361 230.481 348.376 232.771 350.023C235.088 351.62 236.419 353.575 236.989 355.025C237.585 356.484 237.553 357.396 237.629 357.383" fill="#33535F"/>
<path d="M224.299 376.976C224.289 376.902 225.244 376.778 226.896 376.346C228.537 375.888 230.863 374.884 233.139 372.856C235.441 370.859 237.491 367.751 238.937 363.984C240.377 360.214 241.245 355.782 241.356 351.115C241.404 348.783 241.224 346.508 240.817 344.35C240.383 342.195 239.739 340.17 238.968 338.304C237.373 334.587 235.253 331.564 233.189 329.304C229.036 324.763 225.577 322.934 225.701 322.778C225.715 322.755 225.927 322.867 226.319 323.099C226.705 323.34 227.3 323.66 228.004 324.166C229.437 325.139 231.432 326.691 233.572 328.952C235.716 331.202 237.925 334.251 239.591 338.036C240.396 339.936 241.069 342.007 241.525 344.211C241.952 346.419 242.141 348.752 242.092 351.132C241.979 355.882 241.076 360.388 239.569 364.23C238.056 368.067 235.901 371.238 233.483 373.248C231.089 375.288 228.66 376.243 226.969 376.623C226.131 376.856 225.441 376.862 224.993 376.938C224.54 376.988 224.301 377.002 224.299 376.976" fill="#33535F"/>
<path d="M238.493 514.211L172.515 523.792C147.733 530.806 121.624 532.86 94.3298 530.491L193.624 576.811L233.488 577.43C233.488 577.43 245.627 577.467 247.748 566.84C249.901 556.048 252.227 524.004 252.227 524.004C252.227 524.004 244.349 517.155 238.493 514.211" fill="#17282F"/>
<path d="M239.464 561.976C239.775 555.296 239.383 548.583 238.3 541.984L238.291 541.988C238.725 539.509 239.039 536.888 238.764 534.14C238.533 532.403 237.855 530.84 237.419 529.156C237.412 529.132 237.404 529.107 237.397 529.081C238.559 529.118 241.303 529.202 242.796 529.261C245.201 529.357 247.853 529.357 247.853 529.357C248.295 531.535 245.268 533.723 244.124 535.627C242.417 538.466 243.773 542.047 244.355 545.307C245.407 551.216 243.543 557.572 239.464 561.976" fill="#0F191D"/>
<path d="M191.468 406.458L223.527 402.996L229.392 408.338L206.507 421.791L196.411 427.019L186.44 423.991L183.28 418.048L191.468 406.458" fill="#F9A78D"/>
<path d="M148.257 445.491C148.257 445.491 158.305 426.207 160.793 421.993C165.035 414.812 172.948 410.741 172.948 410.741L191.468 406.457C191.468 406.457 189.547 415.737 201.072 416.377C215.729 417.193 224.835 403.137 224.835 403.137C224.835 403.137 241.56 404.857 246.177 406.799C250.796 408.739 263.861 414.204 265.777 431.576L270.253 459.933L234.917 462.627L235.407 500.379L220.392 512.66C220.392 512.66 177.277 527.507 174.524 528.482C173.223 528.942 173.541 510.621 170.46 494.923L164.64 480.794C162.311 475.137 160.863 469.143 160.52 463.035C160.295 459.016 160.404 455.975 160.404 455.975C160.404 455.975 151.34 452.859 148.257 445.491" fill="#5D2B68"/>
<path d="M176.097 513.654L235.337 495.872L234.917 462.627L265.087 460.328C265.087 460.328 262.679 477.555 262.327 486.388C261.819 499.091 255.708 516.845 251.62 520.615C247.533 524.384 174.524 528.482 174.524 528.482L176.097 513.654" fill="#F9A78D"/>
<path d="M142.5 524.108C142.989 524.916 143.913 525.396 144.844 525.242C145.029 525.211 145.223 525.159 145.419 525.079C146.719 524.548 146.384 521.844 146.384 521.844L152.689 520.307C152.689 520.307 161.408 525.019 164.636 528.339C167.865 531.659 175.18 528.2 175.18 528.2L176.737 514.388L164.161 504.669C164.161 504.669 164.932 505.247 163.968 503.321C163.003 501.395 159.368 502.433 159.368 502.433C158.717 501.495 156.277 501.33 156.277 501.33L146.06 503.316C143.955 503.724 142.148 505.066 141.145 506.961L137.32 514.2C137.32 514.2 135.401 519.348 135.861 520.473C136.556 522.173 138.369 521.643 138.369 521.643C138.369 521.643 139.129 524.871 139.996 524.918C140.863 524.966 142.5 524.108 142.5 524.108" fill="#F9A78D"/>
<path d="M163.685 512.633C163.683 512.743 162.301 512.721 160.107 512.988C157.919 513.266 154.909 513.885 151.816 515.214C150.269 515.871 148.855 516.63 147.621 517.404C146.429 518.203 145.175 518.88 144.845 519.818C144.68 520.278 144.804 520.721 145.053 521.038C145.297 521.352 145.611 521.548 145.883 521.635C146.441 521.816 146.78 521.636 146.797 521.697C146.824 521.711 146.499 522.007 145.817 521.883C145.489 521.821 145.099 521.635 144.769 521.272C144.436 520.932 144.208 520.295 144.401 519.679C144.579 519.06 145.053 518.555 145.572 518.13C146.105 517.719 146.664 517.297 147.292 516.894C148.535 516.073 149.975 515.28 151.557 514.607C154.724 513.248 157.827 512.685 160.061 512.524C162.307 512.373 163.691 512.561 163.685 512.633" fill="#F57F62"/>
<path d="M164.916 519.151C164.919 519.348 160.711 519.497 155.579 520.199C150.444 520.881 146.345 521.851 146.297 521.661C146.276 521.578 147.275 521.227 148.931 520.802C150.587 520.376 152.903 519.895 155.491 519.545C158.077 519.197 160.439 519.048 162.148 519.02C163.857 518.991 164.915 519.066 164.916 519.151" fill="#F57F62"/>
<path d="M142.539 523.842C142.505 523.839 142.429 523.463 142.325 522.754C142.227 522.048 142.104 521.02 142.084 519.735C142.079 519.094 142.092 518.386 142.209 517.622C142.316 516.856 142.613 516.035 143.049 515.298C143.869 513.819 145.048 512.262 146.605 511.042C148.159 509.835 149.725 508.796 151.344 508.168C152.949 507.543 154.479 507.3 155.745 507.145C157.016 507.002 158.045 506.95 158.756 506.922C159.468 506.896 159.863 506.903 159.867 506.949C159.879 507.054 158.307 507.228 155.809 507.607C154.568 507.819 153.089 508.104 151.569 508.732C150.061 509.349 148.523 510.388 147.021 511.555C145.517 512.738 144.415 514.164 143.575 515.602C142.679 516.979 142.608 518.486 142.551 519.74C142.496 522.255 142.681 523.835 142.539 523.842" fill="#F57F62"/>
<path d="M155.983 503.987C155.991 504.085 154.451 504.245 152.009 504.718C149.665 505.266 145.883 505.735 143.975 509.171C141.863 512.327 140.089 515.289 139.397 517.661C138.651 520.021 138.855 521.599 138.72 521.597C138.685 521.6 138.595 521.216 138.575 520.508C138.549 519.801 138.621 518.763 138.949 517.533C139.552 515.041 141.305 511.973 143.429 508.8C143.972 508.002 144.567 507.24 145.276 506.62C145.983 505.988 146.829 505.587 147.613 505.292C149.204 504.708 150.689 504.457 151.931 504.26C154.42 503.899 155.977 503.904 155.983 503.987" fill="#F57F62"/>
<path d="M162.211 526.316C162.199 526.332 161.976 526.188 161.563 525.896C161.093 525.576 160.485 525.16 159.729 524.644C158.115 523.584 155.723 522.083 152.592 520.501L152.74 520.518C150.86 520.989 148.741 521.521 146.445 522.097L146.643 521.812C146.697 522.332 146.708 522.843 146.645 523.38C146.579 523.908 146.456 524.482 146.04 524.972C145.823 525.212 145.497 525.369 145.223 525.427C144.945 525.52 144.639 525.573 144.329 525.548C143.713 525.508 143.116 525.232 142.673 524.792C142.56 524.685 142.46 524.563 142.367 524.437L142.3 524.339L142.268 524.289L142.252 524.266L142.249 524.261C142.165 524.236 142.983 524.466 142.635 524.369L142.628 524.373L142.615 524.38L142.419 524.478C142.159 524.606 141.892 524.724 141.617 524.833C141.343 524.942 141.06 525.043 140.76 525.119C140.609 525.156 140.456 525.191 140.289 525.208C140.135 525.225 139.948 525.245 139.689 525.139C139.309 524.911 139.157 524.618 138.999 524.343C138.849 524.063 138.723 523.779 138.613 523.491C138.392 522.912 138.217 522.327 138.064 521.715L138.457 521.944C137.64 522.154 136.649 522.03 136.016 521.318C135.729 520.984 135.484 520.567 135.477 520.066C135.464 519.618 135.533 519.218 135.608 518.813C135.933 517.213 136.448 515.661 137.012 514.087L137.019 514.068L137.029 514.047C137.68 512.816 138.371 511.508 139.069 510.185C139.504 509.363 139.935 508.547 140.363 507.737C140.795 506.952 141.169 506.079 141.805 505.354C142.416 504.632 143.171 504.047 144 503.636C144.823 503.203 145.76 503.039 146.587 502.887C149.973 502.238 153.203 501.62 156.221 501.042L156.263 501.033L156.297 501.036C156.903 501.092 157.472 501.188 158.036 501.354C158.588 501.528 159.173 501.727 159.597 502.275L159.231 502.191C160.288 501.657 161.551 501.555 162.556 502.119C163.565 502.676 164.087 503.663 164.396 504.603L164.308 504.473C167.919 507.248 170.865 509.512 172.973 511.131C173.945 511.897 174.724 512.509 175.311 512.972C175.841 513.4 176.112 513.633 176.097 513.654C176.083 513.672 175.783 513.476 175.225 513.085C174.619 512.649 173.815 512.071 172.809 511.348C170.669 509.771 167.679 507.567 164.015 504.864L163.955 504.821L163.925 504.736C163.644 503.907 163.136 503.009 162.307 502.581C161.496 502.121 160.389 502.223 159.505 502.676L159.287 502.788L159.139 502.592C158.891 502.266 158.381 502.045 157.876 501.903C157.365 501.757 156.805 501.667 156.257 501.621L156.333 501.618C153.317 502.212 150.092 502.848 146.709 503.515C145.845 503.679 145.04 503.821 144.288 504.218C143.539 504.591 142.856 505.121 142.305 505.775C141.743 506.409 141.391 507.231 140.945 508.045C140.517 508.855 140.087 509.671 139.652 510.494C138.952 511.816 138.261 513.123 137.611 514.354L137.627 514.315C137.072 515.856 136.555 517.412 136.241 518.935C136.168 519.312 136.107 519.7 136.117 520.04C136.105 520.336 136.28 520.642 136.489 520.892C136.9 521.387 137.66 521.494 138.281 521.343L138.599 521.266L138.675 521.572C138.816 522.148 138.985 522.728 139.191 523.271C139.385 523.784 139.665 524.406 139.965 524.597C139.98 524.604 140.092 524.63 140.227 524.607C140.351 524.596 140.483 524.567 140.615 524.535C140.877 524.471 141.14 524.38 141.399 524.279C141.657 524.177 141.913 524.067 142.163 523.947L142.347 523.856L142.357 523.851L142.363 523.848C142.017 523.751 142.836 523.979 142.752 523.957L142.753 523.959L142.767 523.979L142.792 524.018L142.844 524.096L143.084 524.378C143.431 524.728 143.897 524.945 144.368 524.98C144.604 525.001 144.836 524.963 145.067 524.885C145.319 524.831 145.483 524.745 145.631 524.596C146.191 523.916 146.189 522.777 146.124 521.876L146.107 521.64L146.321 521.589C148.625 521.044 150.751 520.542 152.637 520.095L152.717 520.076L152.785 520.112C155.921 521.761 158.28 523.323 159.864 524.448C160.651 525.016 161.245 525.476 161.636 525.799C162.027 526.123 162.224 526.3 162.211 526.316" fill="#F57F62"/>
<path d="M131.421 534.889C131.421 534.889 89.6207 521.756 76.49 517.499C53.8848 510.172 39.0854 517.579 34.4182 525.667C28.3619 536.161 42.8838 556.624 48.4775 561.327C65.053 575.264 93.4655 577.142 93.4655 577.142L195.627 576.949L165.797 536.508L131.421 534.889Z" fill="#17282F"/>
<path d="M137.675 553.852C120.742 555.843 103.315 553.471 87.5292 547.03C84.7688 545.902 82.0432 544.649 79.1536 543.916C76.3453 543.204 73.4088 542.996 70.5276 543.307C68.2473 543.554 65.8208 544.236 64.4354 546.066C62.3979 548.754 63.4459 552.571 64.5776 555.748C65.9036 559.472 67.2844 563.292 69.8781 566.275C72.9115 569.763 77.3098 571.757 81.7188 573.147C90.3448 575.864 99.4557 576.643 108.492 577.002L139.54 575.304L137.675 553.852" fill="#DADBD8"/>
<path d="M77.7293 543.93C77.7667 543.912 77.9485 544.203 78.2053 544.763C78.4631 545.323 78.7725 546.166 79.0271 547.244C79.5474 549.381 79.7225 552.562 78.6755 555.818C77.6282 559.076 75.6318 561.557 73.9631 562.991C73.1277 563.719 72.3855 564.223 71.8495 564.528C71.3141 564.833 70.9979 564.964 70.9771 564.928C70.9157 564.83 72.0995 564.154 73.6485 562.651C75.1938 561.168 77.047 558.74 78.0522 555.618C79.0553 552.495 78.9646 549.443 78.5735 547.338C78.1902 545.214 77.6225 543.974 77.7293 543.93" fill="#17282F"/>
<path d="M238.107 532.328C235.68 525.454 235.275 515.343 220.312 510.49C205.348 505.636 194.024 514.938 186.34 518.173C178.656 521.409 136.597 544.461 136.597 544.461C136.597 544.461 128.676 558.584 130.932 564.818C133.187 571.049 143.431 577.219 143.431 577.219H173.803C173.803 577.219 178.323 577.219 190.455 577.219C202.588 577.219 225.165 576.815 225.165 576.815C229.319 570.299 233.253 561.447 233.253 561.447L233.657 559.424C233.657 557.807 240.533 539.203 238.107 532.328" fill="#17282F"/>
<path d="M212.053 568.051C212.053 568.051 212.02 568.321 211.708 568.692C211.405 569.065 210.889 569.555 210.16 570.085C208.7 571.151 206.437 572.468 203.511 573.811C202.041 574.473 200.421 575.172 198.6 575.74C196.785 576.313 194.789 576.736 192.675 577.02C188.437 577.625 183.736 577.492 178.86 577.561C169.077 577.719 160.213 578.085 153.788 578.014C150.576 577.99 147.975 577.86 146.185 577.675C145.291 577.583 144.599 577.485 144.133 577.385C143.668 577.297 143.427 577.242 143.431 577.219C143.443 577.151 144.419 577.327 146.207 577.42C147.993 577.527 150.584 577.587 153.788 577.551C160.197 577.504 169.051 577.064 178.851 576.907C183.755 576.837 188.412 576.987 192.596 576.421C194.685 576.157 196.652 575.761 198.441 575.221C200.229 574.687 201.856 574.018 203.321 573.388C206.251 572.109 208.528 570.864 210.013 569.877C210.756 569.384 211.284 568.939 211.608 568.606C211.94 568.276 212.013 568.033 212.053 568.051Z" fill="#17282F"/>
<path d="M143.431 577.219C143.431 577.219 143.211 577.121 142.808 576.888C142.405 576.656 141.816 576.293 141.057 575.799C139.557 574.791 137.344 573.273 134.875 570.881C133.667 569.668 132.37 568.232 131.376 566.369C130.333 564.492 130.286 562.054 130.687 559.68C131.519 554.871 133.623 549.731 136.372 544.339L136.404 544.275L136.473 544.236C144.172 540 153.009 535.178 162.664 529.995C167.495 527.408 172.528 524.727 177.751 522.03C180.369 520.69 183.009 519.315 185.784 518.067C188.545 516.895 191.185 515.361 193.945 513.956C197.847 511.955 201.88 510.194 206.099 509.387C208.195 508.927 210.328 508.807 212.428 508.807C214.527 508.909 216.605 509.147 218.588 509.694C222.548 510.742 226.287 512.395 229.361 514.836C230.872 516.084 232.187 517.519 233.276 519.078C234.34 520.655 235.149 522.347 235.803 524.051C236.461 525.756 236.94 527.482 237.419 529.156C237.855 530.84 238.533 532.403 238.764 534.14C239.104 537.551 238.541 540.764 237.963 543.756C237.356 546.752 236.613 549.551 235.875 552.163C235.495 553.466 235.127 554.726 234.772 555.943C234.429 557.144 234.027 558.354 233.848 559.424L233.844 559.461C233.688 560.227 233.557 560.861 233.431 561.481L233.429 561.492L233.427 561.497C231.728 566.797 229.661 570.707 228.025 573.215C226.369 575.721 225.164 576.815 225.164 576.815C225.159 576.808 225.217 576.727 225.341 576.572C225.483 576.399 225.665 576.178 225.897 575.894C226.381 575.291 227.063 574.368 227.863 573.111C229.436 570.588 231.444 566.664 233.079 561.396L233.076 561.411C233.841 560.772 233.692 560.143 233.471 559.387L233.468 559.424C233.656 558.179 234.041 557.063 234.377 555.828C234.723 554.609 235.08 553.348 235.451 552.044C236.169 549.433 236.892 546.64 237.479 543.66C238.04 540.691 238.572 537.484 238.228 534.209C238.02 532.62 237.327 530.999 236.88 529.312C236.393 527.636 235.913 525.93 235.261 524.259C234.613 522.588 233.819 520.942 232.783 519.414C231.721 517.906 230.445 516.521 228.976 515.314C225.992 512.952 222.312 511.328 218.432 510.309C216.492 509.778 214.461 509.551 212.412 509.451C210.361 509.455 208.279 509.572 206.227 510.024C202.096 510.818 198.123 512.55 194.244 514.539C191.503 515.933 188.845 517.478 186.044 518.667C183.311 519.892 180.659 521.269 178.047 522.603C172.825 525.292 167.789 527.964 162.955 530.539C153.315 535.736 144.457 540.512 136.72 544.685L136.821 544.583C134.069 549.911 131.942 555.031 131.091 559.747C130.684 562.096 130.706 564.392 131.69 566.209C132.635 568.027 133.897 569.463 135.079 570.678C137.493 573.078 139.673 574.631 141.141 575.673C141.871 576.164 142.437 576.547 142.848 576.823C143.236 577.078 143.431 577.219 143.431 577.219" fill="#17282F"/>
<path d="M219.967 559.775C219.967 559.775 233.973 561.445 232.729 568.306C231.484 575.166 226.907 577.467 226.907 577.467L188.829 577.548C188.829 577.548 211.567 575.964 219.967 559.775Z" fill="#DADBD8"/>
<path d="M221.325 556.444C221.403 556.465 221.293 557.22 220.899 558.389C220.504 559.552 219.784 561.126 218.627 562.635C216.277 565.689 213.295 566.88 213.269 566.739C213.147 566.552 215.881 565.144 218.108 562.235C220.329 559.332 221.111 556.364 221.325 556.444Z" fill="#17282F"/>
<path d="M216.46 559.136C216.643 559.143 216.433 561.498 215.108 564.014C213.823 566.539 212.173 568.168 212.053 568.051C211.905 567.927 213.285 566.156 214.525 563.716C215.804 561.29 216.28 559.109 216.46 559.136" fill="#17282F"/>
<path d="M234.335 575.553C234.231 575.5 235.131 573.763 236.231 570.82C237.335 567.883 238.536 563.69 239.087 558.933C239.624 554.172 239.4 549.817 238.987 546.707C238.579 543.59 238.095 541.696 238.208 541.668C238.252 541.656 238.407 542.12 238.648 542.972C238.901 543.821 239.181 545.076 239.445 546.639C239.98 549.763 240.283 554.18 239.739 559.008C239.18 563.832 237.888 568.066 236.663 570.989C236.052 572.453 235.497 573.612 235.059 574.381C234.631 575.157 234.375 575.575 234.335 575.553" fill="#33535F"/>
<path d="M195.808 575.888H216.568V564.787H195.808V575.888Z" fill="#0F191D"/>
<path d="M190.371 576.957C190.208 576.957 190.048 576.956 189.891 576.956C191.789 576.778 193.781 576.417 195.808 575.888C196.721 575.696 197.601 575.475 198.441 575.221C200.229 574.687 201.856 574.017 203.321 573.388C206.251 572.109 208.528 570.864 210.013 569.877C210.756 569.384 211.284 568.939 211.608 568.605C211.669 568.545 211.721 568.487 211.767 568.433C211.836 568.384 211.904 568.336 211.973 568.285C211.923 568.395 211.84 568.533 211.708 568.692C211.405 569.065 210.889 569.554 210.16 570.085C208.7 571.151 206.437 572.468 203.511 573.811C203.153 573.972 202.788 574.135 202.413 574.297C198.984 575.629 195.752 576.429 193.301 576.901C192.265 576.939 191.279 576.957 190.371 576.957" fill="#0F191D"/>
<path d="M225.983 561.168C223.727 560.402 221.54 560.011 220.537 559.856C221.404 558.6 222.14 557.3 222.716 555.965C223.131 555.009 223.809 553.852 224.78 553.852C224.863 553.852 224.948 553.861 225.036 553.878C225.944 554.064 226.309 555.157 226.408 556.078C226.592 557.795 226.428 559.513 225.983 561.168Z" fill="#0F191D"/>
<path d="M193.301 576.901C195.752 576.429 198.984 575.629 202.413 574.297C207.293 572.401 212.573 569.428 216.568 564.787C217.251 564.209 217.964 563.496 218.627 562.635C219.06 562.069 219.432 561.496 219.748 560.939C220.023 560.581 220.285 560.22 220.537 559.856C221.54 560.011 223.727 560.402 225.983 561.168C225.14 564.293 223.293 567.187 220.891 569.385C217.216 572.749 212.38 574.631 207.477 575.52C203.595 576.224 197.955 576.739 193.301 576.901" fill="#8F9192"/>
<path d="M214.901 565.995C216.731 564.426 218.373 562.732 219.748 560.939C219.432 561.496 219.06 562.069 218.627 562.635C217.964 563.496 217.251 564.209 216.568 564.787C215.972 565.29 215.397 565.69 214.901 565.995" fill="#0F191D"/>
<path d="M133.636 540.886C133.557 541.048 130.539 539.9 126.896 538.322C123.25 536.743 120.352 535.327 120.42 535.159C120.487 534.991 123.505 536.139 127.16 537.723C130.813 539.306 133.713 540.722 133.636 540.886" fill="#17282F"/>
<path d="M120.286 531.387C117.749 530.588 114.914 529.694 111.922 528.751C116.734 529.535 121.543 530.345 126.347 531.185C124.333 531.279 122.314 531.345 120.286 531.387Z" fill="#C3C5C2"/>
<path d="M148.753 535.706L131.421 534.889C131.421 534.889 126.864 533.457 120.286 531.387C122.314 531.345 124.333 531.278 126.347 531.184C133.313 532.399 140.271 533.671 147.217 535C147.772 535.106 148.417 535.306 148.753 535.706" fill="#111D23"/>
<path d="M110.685 544.859C106.475 544.857 102.286 544.514 98.1948 543.535C90.364 541.661 82.8287 537.148 79.0156 530.056L92.6214 525.755C99.0626 526.706 105.496 527.704 111.922 528.751C114.914 529.694 117.749 530.588 120.286 531.387C126.864 533.457 131.421 534.89 131.421 534.89L148.753 535.706C148.876 535.851 148.957 536.024 148.979 536.228C149.049 536.902 148.393 537.407 147.807 537.745C140.124 542.172 131.057 543.406 122.227 544.219C118.399 544.571 114.533 544.859 110.685 544.859ZM120.47 535.143C120.441 535.143 120.424 535.148 120.42 535.159C120.352 535.327 123.251 536.743 126.896 538.321C130.308 539.8 133.171 540.9 133.585 540.9C133.613 540.9 133.631 540.895 133.636 540.885C133.713 540.721 130.814 539.306 127.16 537.723C123.743 536.242 120.883 535.143 120.47 535.143" fill="#111D23"/>
<path d="M133.585 540.9C133.171 540.9 130.308 539.8 126.896 538.321C123.25 536.743 120.352 535.327 120.42 535.159C120.424 535.148 120.441 535.143 120.47 535.143C120.883 535.143 123.743 536.242 127.16 537.723C130.813 539.306 133.713 540.721 133.636 540.885C133.631 540.895 133.613 540.9 133.585 540.9" fill="#111D23"/>
<path d="M57.9359 480.983L80.7816 531.523C81.7275 533.616 83.7988 534.971 86.0947 535.002L152.729 535.866L161.129 531.344L147.975 530.381L127.499 481.239C126.846 479.672 125.32 478.647 123.623 478.633L59.7791 478.151C58.3155 478.139 57.3327 479.649 57.9359 480.983" fill="#DADBD8"/>
<path d="M57.9359 480.983C57.9359 480.983 57.8026 480.8 57.7354 480.373C57.6696 479.964 57.7384 479.236 58.3592 478.627C58.6696 478.339 59.1182 478.094 59.6535 478.069C60.1666 478.065 60.7254 478.061 61.3291 478.057C62.5426 478.057 63.9363 478.056 65.5035 478.056C71.8244 478.077 80.9359 478.106 92.2442 478.144C97.913 478.173 104.132 478.205 110.823 478.239C114.171 478.259 117.637 478.278 121.211 478.299C122.112 478.308 123.02 478.317 123.934 478.327C124.909 478.394 125.862 478.797 126.607 479.451C127.384 480.08 127.813 481.077 128.135 481.909C128.496 482.771 128.858 483.637 129.223 484.511C135.056 498.48 141.5 513.912 148.317 530.237L148.001 530.011C152.049 530.305 156.355 530.62 160.707 530.939C160.86 530.949 161.015 530.961 161.157 530.971L162.435 531.065L161.307 531.672C158.42 533.225 155.575 534.756 152.905 536.192L152.82 536.239L152.724 536.237C134.703 535.99 117.644 535.757 102.186 535.545C98.3234 535.489 94.5603 535.436 90.9072 535.383C89.0687 535.341 87.3114 535.363 85.4843 535.271C83.6264 535.069 81.9348 533.992 80.9644 532.477C77.9895 526.22 75.5051 520.429 73.0947 515.136C68.3734 504.573 64.565 496.052 61.9228 490.14C60.6327 487.216 59.628 484.939 58.9316 483.361C58.6078 482.606 58.3556 482.02 58.1723 481.594C58.0046 481.194 57.9359 480.983 57.9359 480.983C57.9359 480.983 58.0494 481.175 58.239 481.564C58.4374 481.983 58.7114 482.56 59.063 483.301C59.7879 484.866 60.8338 487.125 62.1764 490.025C64.8687 495.914 68.7488 504.402 73.5587 514.927C75.9802 520.169 78.5556 526.064 81.4676 532.149C82.3494 533.515 83.8802 534.478 85.553 534.653C87.2592 534.732 89.1035 534.711 90.9155 534.744C94.5687 534.787 98.3316 534.829 102.195 534.873C117.653 535.063 134.712 535.272 152.733 535.494L152.553 535.537C155.223 534.1 158.067 532.568 160.952 531.015L161.103 531.716C160.96 531.705 160.807 531.694 160.652 531.683C156.3 531.364 151.995 531.048 147.948 530.752L147.719 530.735L147.632 530.524C140.839 514.187 134.419 498.745 128.608 484.766C128.245 483.894 127.885 483.025 127.527 482.163C127.178 481.269 126.849 480.501 126.176 479.939C125.54 479.376 124.723 479.028 123.886 478.966C122.986 478.954 122.093 478.944 121.207 478.932C117.632 478.899 114.167 478.865 110.819 478.835C104.127 478.766 97.9087 478.705 92.24 478.648C80.9327 478.515 71.8218 478.407 65.502 478.331C63.9348 478.307 62.5411 478.285 61.3275 478.266C60.7275 478.259 60.1723 478.252 59.6624 478.245C59.1707 478.256 58.753 478.471 58.4562 478.731C57.8608 479.283 57.7655 479.966 57.8072 480.365C57.8478 480.778 57.9583 480.975 57.9359 480.983" fill="#17282F"/>
<path d="M146.016 535.777C145.995 535.787 145.889 535.596 145.709 535.227C145.503 534.785 145.252 534.247 144.948 533.595C144.275 532.072 143.371 530.027 142.272 527.54C140.044 522.415 137.017 515.311 133.761 507.43C130.502 499.545 127.634 492.375 125.641 487.151C124.648 484.537 123.855 482.419 123.345 480.94C123.114 480.26 122.922 479.697 122.766 479.236C122.64 478.844 122.584 478.633 122.606 478.625C122.627 478.619 122.724 478.812 122.889 479.189C123.077 479.639 123.306 480.187 123.583 480.851C124.208 482.392 125.049 484.463 126.071 486.982C128.23 492.236 131.145 499.333 134.367 507.179C137.603 515.016 140.531 522.108 142.699 527.36C143.719 529.88 144.559 531.952 145.183 533.495C145.441 534.166 145.655 534.72 145.831 535.175C145.972 535.561 146.036 535.769 146.016 535.777" fill="#17282F"/>
<path d="M104.677 505.484C104.677 507.289 103.214 508.752 101.409 508.752C99.6042 508.752 98.1418 507.289 98.1418 505.484C98.1418 503.68 99.6042 502.218 101.409 502.218C103.214 502.218 104.677 503.68 104.677 505.484Z" fill="white"/>
<path d="M169.553 424.191C169.655 424.247 168.695 426.045 167.348 429.039C165.997 432.029 164.327 436.251 162.977 441.068C161.637 445.89 160.881 450.368 160.489 453.627C160.092 456.885 159.983 458.92 159.867 458.916C159.817 458.913 159.795 458.404 159.796 457.48C159.791 456.556 159.852 455.22 159.987 453.575C160.253 450.283 160.936 445.745 162.289 440.877C163.652 436.013 165.415 431.777 166.891 428.823C167.628 427.344 168.267 426.169 168.751 425.383C169.227 424.591 169.511 424.167 169.553 424.191Z" fill="#17282F"/>
<path d="M270.253 459.933C270.255 459.955 270.004 459.994 269.521 460.048C268.973 460.101 268.271 460.171 267.399 460.256C265.469 460.418 262.793 460.642 259.48 460.92C252.655 461.433 243.216 462.145 232.399 462.96L232.051 462.985L232.028 462.637C231.801 459.042 231.561 455.243 231.315 451.339C230.931 444.54 230.603 438.061 230.499 432.155C230.189 426.217 231.644 420.797 233.972 416.943C236.276 413.031 239.332 410.756 241.564 409.647C242.7 409.111 243.609 408.753 244.253 408.601C244.888 408.421 245.223 408.34 245.228 408.363C245.261 408.46 243.885 408.739 241.692 409.892C239.535 411.061 236.605 413.341 234.408 417.197C232.187 421.013 230.817 426.273 231.156 432.143C231.296 438.029 231.644 444.504 232.028 451.297C232.267 455.2 232.5 458.996 232.721 462.589L232.351 462.267C243.175 461.551 252.619 460.927 259.449 460.475C262.768 460.283 265.448 460.128 267.383 460.016C268.257 459.979 268.963 459.948 269.512 459.924C269.997 459.911 270.251 459.913 270.253 459.933" fill="#17282F"/>
<path d="M203.821 483.028C203.801 483.073 203.383 482.916 202.637 482.592C202.261 482.437 201.809 482.228 201.313 481.93C200.816 481.639 200.224 481.34 199.64 480.903C198.421 480.103 197.087 478.976 195.74 477.594C194.425 476.18 193.119 474.492 192.003 472.56C190.912 470.612 190.129 468.625 189.588 466.773C189.087 464.908 188.803 463.185 188.737 461.728C188.66 461.003 188.707 460.342 188.711 459.766C188.707 459.187 188.759 458.692 188.819 458.289C188.921 457.483 189.001 457.043 189.049 457.049C189.191 457.061 188.959 458.844 189.241 461.687C189.367 463.109 189.697 464.782 190.219 466.589C190.781 468.385 191.561 470.309 192.623 472.207C193.711 474.089 194.965 475.743 196.221 477.145C197.508 478.518 198.776 479.656 199.933 480.492C202.232 482.187 203.883 482.9 203.821 483.028" fill="#17282F"/>
</g>
<defs>
<clipPath id="clip0_15_1480">
<rect width="627.707" height="578.547" fill="white"/>
</clipPath>
</defs>
</svg>
